<svg width="54" height="40" viewBox="0 0 54 40" fill="none" xmlns="http://www.w3.org/2000/svg">
<path d="M54 39H0V41H54V39Z" fill="#F3F3F4" fill-opacity="0.12" mask="url(#path-1-inside-1_5460_11714)"/>
<path d="M19.75 13.75C20.1642 13.75 20.5 14.0858 20.5 14.5V25.5C20.5 25.9142 20.1642 26.25 19.75 26.25C19.3358 26.25 19 25.9142 19 25.5V14.5C19 14.0858 19.3358 13.75 19.75 13.75ZM22 20C22 19.5858 22.3358 19.25 22.75 19.25H32.9393L30.2197 16.5303C29.9268 16.2374 29.9268 15.7626 30.2197 15.4697C30.5126 15.1768 30.9874 15.1768 31.2803 15.4697L35.277 19.4663C35.2891 19.4784 35.3009 19.4908 35.3122 19.5036C35.3626 19.5605 35.4028 19.6232 35.4329 19.6894C35.476 19.7841 35.5 19.8892 35.5 20C35.5 20.1122 35.4753 20.2187 35.4312 20.3143C35.4019 20.3778 35.3633 20.438 35.3153 20.4929C35.3029 20.5071 35.29 20.5208 35.2766 20.534L31.2803 24.5303C30.9874 24.8232 30.5126 24.8232 30.2197 24.5303C29.9268 24.2374 29.9268 23.7626 30.2197 23.4697L32.9393 20.75H22.75C22.3358 20.75 22 20.4142 22 20Z" fill="#0B0B0C"/>
</svg>
